<svg width="30" height="27" viewBox="0 0 30 27" fill="none" xmlns="http://www.w3.org/2000/svg">
<path d="M9.53842 5.55873C9.53842 5.95473 9.61842 6.29673 9.81842 6.63873C12.2984 10.7427 14.8184 14.8467 17.3584 18.9687C17.4784 19.1487 17.3984 19.3647 17.1984 19.4727C17.1384 19.5087 17.0584 19.5267 16.9984 19.5267L10.8384 19.4547C10.7584 19.4547 10.6784 19.4187 10.6384 19.3467L3.85842 8.31273C3.83842 8.27673 3.83842 8.22273 3.85842 8.18673L7.93842 1.79673C8.03842 1.65273 8.15842 1.58073 8.33842 1.59873C9.53842 1.63473 10.6984 1.56273 11.8784 1.58073C15.4184 1.61673 18.9384 1.68873 22.4584 1.77873C22.6184 1.77873 22.7784 1.86873 22.8584 1.99473L29.7584 13.0467C29.8384 13.1727 29.8384 13.2987 29.7384 13.4247L28.1984 15.5847C28.1784 15.6207 28.1184 15.6207 28.0984 15.6027L28.0784 15.5847L21.0184 5.03673C20.9584 4.92873 20.8384 4.87473 20.7184 4.87473C17.3184 4.82073 13.9784 4.74873 10.6584 4.67673C10.1184 4.67673 9.55842 5.07273 9.53842 5.55873Z" fill="url(#paint0_linear_4_66)"/>
<path d="M9.65691 21.3818C12.8969 21.3638 16.2169 21.3818 19.6169 21.4178C20.0169 21.4178 20.2969 21.3458 20.5169 21.2018C21.0569 20.8058 21.0369 20.1578 20.7169 19.6538C19.2769 17.2778 17.8969 15.0638 16.5569 13.0118C15.6169 11.5898 14.7769 10.1138 13.8569 8.70977C13.5769 8.25977 13.0969 7.66577 12.8369 7.05377C12.7769 6.89177 12.8569 6.69377 13.0569 6.63977C13.0969 6.62177 13.1369 6.62177 13.1969 6.62177C15.2569 6.67577 17.2569 6.69377 19.1969 6.63977C19.3569 6.63977 19.5169 6.71177 19.5969 6.83777C20.1769 7.70177 20.7169 8.51177 21.2169 9.30377C22.9169 11.9318 24.6969 14.7218 26.5769 17.6738C26.5969 17.7098 26.5969 17.7638 26.5769 17.7998L22.5169 24.3878C22.4769 24.4418 22.4169 24.4778 22.3569 24.4778C18.0569 24.4598 13.7369 24.4598 9.39691 24.4778C8.99691 24.4778 8.55691 24.4958 8.09691 24.5138C7.95691 24.5138 7.81691 24.4598 7.73691 24.3338L0.536908 13.2458C0.496908 13.1738 0.496908 13.1018 0.536908 13.0478L2.11691 10.7978C2.15691 10.7258 2.21691 10.7258 2.25691 10.7978L9.51691 21.3098C9.55691 21.3458 9.59691 21.3818 9.65691 21.3818Z" fill="url(#paint1_linear_4_66)"/>
<defs>
<linearGradient id="paint0_linear_4_66" x1="13.2448" y1="10.5527" x2="39.1265" y2="10.5527" gradientUnits="userSpaceOnUse">
<stop offset="0.0396273" stop-color="#4D7CB0"/>
<stop offset="0.1289" stop-color="#5189B4"/>
<stop offset="0.2705" stop-color="#5599B8"/>
<stop offset="0.3846" stop-color="#579EBA"/>
</linearGradient>
<linearGradient id="paint1_linear_4_66" x1="0.161888" y1="15.5292" x2="26.2604" y2="15.5292" gradientUnits="userSpaceOnUse">
<stop offset="0.3125" stop-color="#579EBA"/>
<stop offset="0.5109" stop-color="#5188B4"/>
<stop offset="0.6638" stop-color="#4D7CB0"/>
</linearGradient>
</defs>
</svg>
